<svg width="76" height="80" viewBox="0 0 76 80" fill="none" xmlns="http://www.w3.org/2000/svg">
<path d="M74 12C51.756 12 51.444 0 38 0C24.556 0 24.244 12 2 12C0.896 12 0 12.896 0 14C0 14 0 25.712 0 32C0 34.756 0.356 37.424 0.986 40C6.858 64.014 37.146 79.814 37.146 79.814C37.146 79.814 37.568 80 38 80C38.406 80 38.854 79.814 38.854 79.814C38.854 79.814 69.142 64.014 75.014 40C75.644 37.424 76 34.756 76 32C76 25.712 76 14 76 14C76 12.896 75.104 12 74 12Z" fill="url(#paint0_linear_47_91)"/>
<path opacity="0.05" d="M38 58C34.692 58 32 55.308 32 52V46.18C28.858 44.146 27 40.756 27 37C27 30.934 31.936 26 38 26C44.064 26 49 30.934 49 37C49 40.754 47.142 44.146 44 46.18V52C44 55.308 41.308 58 38 58Z" fill="#3C3C3C"/>
<path opacity="0.07" d="M38 57C35.242 57 33 54.756 33 52V45.62C29.9 43.828 28 40.58 28 37C28 31.486 32.486 27 38 27C43.514 27 48 31.486 48 37C48 40.58 46.1 43.83 43 45.62V52C43 54.756 40.758 57 38 57Z" fill="#3C3C3C"/>
<path d="M47 37C47 32.03 42.97 28 38 28C33.03 28 29 32.03 29 37C29 40.526 31.048 43.546 34 45.024V52C34 54.21 35.79 56 38 56C40.21 56 42 54.21 42 52V45.024C44.952 43.546 47 40.526 47 37Z" fill="url(#paint1_radial_47_91)"/>
<defs>
<linearGradient id="paint0_linear_47_91" x1="17.322" y1="-27.924" x2="58.972" y2="80.576" gradientUnits="userSpaceOnUse">
<stop offset="0.1" stop-color="#1078FE"/>
<stop offset="0.895" stop-color="#2994FF"/>
</linearGradient>
<radialGradient id="paint1_radial_47_91" cx="0" cy="0" r="1" gradientUnits="userSpaceOnUse" gradientTransform="translate(24.806 26.162) scale(34.74 34.74)">
<stop stop-color="#3C3C3C"/>
<stop offset="0.531" stop-color="#3C3C3C"/>
<stop offset="1" stop-color="#3C3C3C"/>
</radialGradient>
</defs>
</svg>
