<svg width="19" height="19" viewBox="0 0 19 19" fill="none" xmlns="http://www.w3.org/2000/svg">
<path d="M16.625 1.1875C16.9399 1.1875 17.242 1.31261 17.4647 1.53531C17.6874 1.75801 17.8125 2.06006 17.8125 2.375V11.875C17.8125 12.1899 17.6874 12.492 17.4647 12.7147C17.242 12.9374 16.9399 13.0625 16.625 13.0625H5.24163C4.61179 13.0626 4.0078 13.3129 3.5625 13.7584L1.1875 16.1334V2.375C1.1875 2.06006 1.31261 1.75801 1.53531 1.53531C1.75801 1.31261 2.06006 1.1875 2.375 1.1875H16.625ZM2.375 0C1.74511 0 1.14102 0.250223 0.695621 0.695621C0.250223 1.14102 0 1.74511 0 2.375L0 17.5667C2.49552e-05 17.6842 0.0349037 17.799 0.100222 17.8967C0.16554 17.9943 0.258361 18.0704 0.366937 18.1153C0.475513 18.1602 0.594962 18.1718 0.710168 18.1488C0.825373 18.1258 0.931155 18.0691 1.01412 17.9859L4.40206 14.5979C4.62471 14.3752 4.92671 14.2501 5.24163 14.25H16.625C17.2549 14.25 17.859 13.9998 18.3044 13.5544C18.7498 13.109 19 12.5049 19 11.875V2.375C19 1.74511 18.7498 1.14102 18.3044 0.695621C17.859 0.250223 17.2549 0 16.625 0L2.375 0Z" fill="#1D3040"/>
<path d="M9.50018 4.74169C11.4762 2.70988 16.4174 6.26525 9.50018 10.8359C2.58299 6.26406 7.52418 2.70988 9.50018 4.74169Z" fill="#1D3040"/>
</svg>
