<svg width="19" height="19" viewBox="0 0 19 19" fill="none" xmlns="http://www.w3.org/2000/svg">
<path fill-rule="evenodd" clip-rule="evenodd" d="M10.0581 1.32786C9.88631 1.23638 9.69465 1.18853 9.5 1.18853C9.30535 1.18853 9.11369 1.23638 8.94188 1.32786L1.81687 5.12786C1.6269 5.22902 1.46799 5.3799 1.35713 5.56439C1.24628 5.74887 1.18764 5.96001 1.1875 6.17524V7.14542L5.02906 9.44917C4.86053 9.83454 4.76664 10.2484 4.75237 10.6687L1.1875 8.53124V15.3392L5.31881 12.8609C5.49615 13.1886 5.71702 13.5172 5.98144 13.8465L1.22906 16.6989C1.29737 16.9505 1.44659 17.1726 1.6537 17.331C1.8608 17.4894 2.11427 17.5752 2.375 17.5752H16.625C16.8857 17.5752 17.1392 17.4894 17.3463 17.331C17.5534 17.1726 17.7026 16.9505 17.7709 16.6989L13.0186 13.8477C13.283 13.5168 13.5039 13.1878 13.6812 12.8609L17.8125 15.3392V8.53005L14.2476 10.6687C14.2332 10.2488 14.1393 9.83536 13.9709 9.45036L17.8125 7.14542V6.17524C17.8124 5.96001 17.7537 5.74887 17.6429 5.56439C17.532 5.3799 17.3731 5.22902 17.1831 5.12786L10.0581 1.32786ZM8.38375 0.2793C8.72767 0.0959207 9.11143 0 9.50119 0C9.89094 0 10.2747 0.0959207 10.6186 0.2793L17.7436 4.0793C18.1233 4.28202 18.4408 4.58412 18.6621 4.95329C18.8833 5.32246 19.0002 5.74482 19 6.17524V16.3877C19 17.0176 18.7498 17.6217 18.3044 18.0671C17.859 18.5125 17.2549 18.7627 16.625 18.7627H2.375C1.74511 18.7627 1.14102 18.5125 0.695621 18.0671C0.250223 17.6217 1.18796e-08 17.0176 1.18796e-08 16.3877V6.17524C-4.30429e-05 5.7447 0.116946 5.32225 0.338454 4.95307C0.559963 4.58389 0.877658 4.28187 1.25756 4.0793L8.38375 0.2793ZM9.5 9.25443C11.476 7.22261 16.4172 10.778 9.5 15.3487C2.58281 10.7768 7.524 7.22261 9.5 9.25443Z" fill="#1D3040"/>
</svg>
