<svg width="18" height="18" viewBox="0 0 18 18" fill="none" xmlns="http://www.w3.org/2000/svg">
<g clip-path="url(#clip0_40_15)">
<path d="M0.562547 8.43754H6.75005C6.89923 8.43754 7.0423 8.37828 7.14779 8.27279C7.25328 8.1673 7.31255 8.02423 7.31255 7.87504V2.34567C7.31337 2.26347 7.29617 2.1821 7.26216 2.10726C7.22814 2.03243 7.17814 1.96597 7.11567 1.91254C7.05323 1.86013 6.98014 1.82192 6.90147 1.80055C6.8228 1.77918 6.74042 1.77517 6.66005 1.78879L0.472547 2.81254C0.339445 2.8341 0.218517 2.90276 0.131791 3.00601C0.045065 3.10925 -0.00168867 3.24022 4.66252e-05 3.37504V7.87504C4.66252e-05 8.02423 0.0593098 8.1673 0.164799 8.27279C0.270288 8.37828 0.413362 8.43754 0.562547 8.43754ZM1.12505 3.85317L6.18755 3.00942V7.31254H1.12505V3.85317Z" fill="#F7FAFC"/>
<path d="M17.3475 4.91299e-05L8.91005 1.4063C8.77695 1.42786 8.65602 1.49652 8.56929 1.59976C8.48256 1.70301 8.43581 1.83397 8.43755 1.9688V7.87505C8.43755 8.02423 8.49681 8.16731 8.6023 8.2728C8.70779 8.37829 8.85086 8.43755 9.00005 8.43755H17.4375C17.5867 8.43755 17.7298 8.37829 17.8353 8.2728C17.9408 8.16731 18 8.02423 18 7.87505V0.562549C18.0001 0.481301 17.9825 0.401017 17.9485 0.327218C17.9145 0.25342 17.8649 0.18786 17.8032 0.135049C17.7417 0.0806622 17.669 0.0403944 17.5903 0.0170726C17.5116 -0.00624921 17.4287 -0.0120597 17.3475 4.91299e-05ZM16.875 7.31255H9.56255V2.44692L16.875 1.2263V7.31255Z" fill="#F7FAFC"/>
<path d="M0.472547 15.1875L6.66005 16.2169H6.75005C6.89923 16.2169 7.04231 16.1576 7.14779 16.0521C7.25328 15.9466 7.31255 15.8036 7.31255 15.6544V10.125C7.31255 9.97582 7.25328 9.83274 7.14779 9.72725C7.04231 9.62176 6.89923 9.5625 6.75005 9.5625H0.562547C0.413362 9.5625 0.270288 9.62176 0.164799 9.72725C0.0593099 9.83274 4.66252e-05 9.97582 4.66252e-05 10.125V14.625C-0.00168867 14.7598 0.045065 14.8908 0.131791 14.994C0.218517 15.0973 0.339445 15.1659 0.472547 15.1875ZM1.12505 10.6875H6.18755V14.9906L1.12505 14.1469V10.6875Z" fill="#F7FAFC"/>
<path d="M17.4375 9.5625H9.00005C8.85086 9.5625 8.70779 9.62176 8.6023 9.72725C8.49681 9.83274 8.43755 9.97582 8.43755 10.125V16.0312C8.43581 16.1661 8.48256 16.297 8.56929 16.4003C8.65602 16.5035 8.77695 16.5722 8.91005 16.5938L17.3475 18H17.4375C17.5716 18 17.7013 17.9521 17.8032 17.865C17.8649 17.8122 17.9145 17.7466 17.9485 17.6728C17.9825 17.599 18.0001 17.5187 18 17.4375V10.125C18 9.97582 17.9408 9.83274 17.8353 9.72725C17.7298 9.62176 17.5867 9.5625 17.4375 9.5625ZM16.875 16.7737L9.56255 15.5531V10.6875H16.875V16.7737Z" fill="#F7FAFC"/>
</g>
<defs>
<clipPath id="clip0_40_15">
<rect width="18" height="18" fill="white"/>
</clipPath>
</defs>
</svg>
